<?xml version="1.0" encoding="UTF-8" standalone="no"?>
<!-- Created with Inkscape (http://www.inkscape.org/) -->

<svg
   width="180"
   height="60"
   viewBox="0 0 47.625132 15.875"
   version="1.1"
   id="svg820"
   inkscape:version="1.2 (dc2aedaf03, 2022-05-15)"
   sodipodi:docname="ship_3.svg"
   xmlns:inkscape="http://www.inkscape.org/namespaces/inkscape"
   xmlns:sodipodi="http://sodipodi.sourceforge.net/DTD/sodipodi-0.dtd"
   xmlns="http://www.w3.org/2000/svg"
   xmlns:svg="http://www.w3.org/2000/svg">
  <sodipodi:namedview
     id="namedview822"
     pagecolor="#ffffff"
     bordercolor="#000000"
     borderopacity="0.25"
     inkscape:showpageshadow="2"
     inkscape:pageopacity="0.0"
     inkscape:pagecheckerboard="true"
     inkscape:deskcolor="#d1d1d1"
     inkscape:document-units="px"
     showgrid="true"
     inkscape:zoom="4.6823232"
     inkscape:cx="87.883724"
     inkscape:cy="49.548053"
     inkscape:window-width="1600"
     inkscape:window-height="837"
     inkscape:window-x="-8"
     inkscape:window-y="32"
     inkscape:window-maximized="1"
     inkscape:current-layer="layer1">
    <inkscape:grid
       type="xygrid"
       id="grid4938"
       dotted="true"
       empspacing="3" />
  </sodipodi:namedview>
  <defs
     id="defs817" />
  <g
     inkscape:label="Слой 1"
     inkscape:groupmode="layer"
     id="layer1">
    <path
       style="fill:#0f0f0b;fill-opacity:0.824786;stroke:#272728;stroke-width:0.0653523"
       d="M 0.73459108,7.9109589 12.714077,1.6386812 46.05321,1.5821742 46.109717,14.352758 12.770584,14.296251 Z"
       id="path6083" />
    <path
       style="fill:#181818;fill-opacity:0.82478601;stroke:#272728;stroke-width:0.0653523"
       d="m 31.080019,11.386276 6.328784,0.05651 v 1.582197 h -6.441798 z"
       id="path6091-5" />
    <path
       style="fill:#838486;fill-opacity:0.82478601;stroke:#272728;stroke-width:0.0653523"
       d="m 7.9109809,5.4811577 0.056507,4.6900813 2.3732941,1.751717 3.277407,0.05651 V 3.9554686 l -3.2209,0.056507 z"
       id="path6085" />
    <path
       style="fill:#0f0f0b;fill-opacity:0.824786;stroke:#272728;stroke-width:0.0653523"
       d="m 15.143878,4.1249894 2.316787,-1.6952101 12.827091,-0.056507 -0.05651,2.4863083 h 6.498306 l -0.169521,5.9897424 -0.05651,0.282535 -6.385292,-0.05651 0.05651,2.316788 -12.601063,0.113014 -2.542815,-1.582197 z"
       id="path6087" />
    <path
       style="fill:#8d8e8e;fill-opacity:0.82478601;stroke:#272728;stroke-width:0.0653523"
       d="m 16.528412,5.4246542 0.05651,4.6900818 2.373294,1.751717 3.277407,0.05651 V 3.8989651 l -3.2209,0.056507 z"
       id="path6085-6" />
    <path
       style="fill:#a0a19f;fill-opacity:0.824786;stroke:#272728;stroke-width:0.0653523"
       d="m 30.42763,8.8433286 0.05651,0.7910982 0.791098,0.056507 -0.113014,-0.7910982 z"
       id="path6532-8" />
    <path
       style="fill:#a0a19f;fill-opacity:0.824786;stroke:#272728;stroke-width:0.0653523"
       d="m 31.896812,8.8998356 0.05651,0.7910982 0.791098,0.056507 -0.113014,-0.7910982 z"
       id="path6532-99" />
    <path
       style="fill:#a0a19f;fill-opacity:0.824786;stroke:#272728;stroke-width:0.0653523"
       d="m 34.2136,8.7868216 0.05651,0.7910982 0.791098,0.056507 -0.113014,-0.7910982 z"
       id="path6532-9" />
    <path
       style="fill:#a0a19f;fill-opacity:0.824786;stroke:#272728;stroke-width:0.0653523"
       d="m 30.258109,6.9785974 0.05651,0.7910982 0.791098,0.056507 -0.113014,-0.7910982 z"
       id="path6532-51" />
    <path
       style="fill:#a0a19f;fill-opacity:0.824786;stroke:#272728;stroke-width:0.0653523"
       d="m 31.840306,7.0351044 0.05651,0.7910982 0.791098,0.056507 L 32.5749,7.0916114 Z"
       id="path6532-2" />
    <path
       style="fill:#a0a19f;fill-opacity:0.824786;stroke:#272728;stroke-width:0.0653523"
       d="m 34.270107,5.5659223 0.05651,0.7910982 0.791098,0.056507 -0.113014,-0.7910982 z"
       id="path6532-20" />
    <path
       style="fill:#a0a19f;fill-opacity:0.824786;stroke:#272728;stroke-width:0.0653523"
       d="m 35.965317,5.6224293 0.05651,0.7910982 0.791098,0.056507 -0.113014,-0.7910982 z"
       id="path6532-6" />
    <path
       style="fill:#a0a19f;fill-opacity:0.824786;stroke:#272728;stroke-width:0.0653523"
       d="m 34.157093,7.0916115 0.05651,0.7910982 0.791098,0.056507 -0.113014,-0.7910982 z"
       id="path6532-0" />
    <path
       style="fill:#a0a19f;fill-opacity:0.824786;stroke:#272728;stroke-width:0.0653523"
       d="m 35.682782,7.2046255 0.05651,0.7910982 0.791098,0.056507 -0.113014,-0.7910982 z"
       id="path6532-24" />
    <path
       style="fill:#a0a19f;fill-opacity:0.824786;stroke:#272728;stroke-width:0.0653523"
       d="m 35.90881,8.7868216 0.05651,0.7910983 0.791098,0.05651 -0.113014,-0.7910983 z"
       id="path6532-55" />
    <path
       style="fill:#a0a19f;fill-opacity:0.824786;stroke:#272728;stroke-width:0.0653523"
       d="m 31.840305,5.5094153 0.05651,0.7910982 0.791098,0.056507 -0.113014,-0.7910982 z"
       id="path6532-5" />
    <path
       style="fill:#929596;fill-opacity:0.82478601;stroke:#272728;stroke-width:0.0653523"
       d="m 22.998975,6.9782983 6.441798,0.169522 v -1.582197 l -6.385291,-0.05651 z"
       id="path6255-0" />
    <path
       style="fill:#939496;fill-opacity:0.82478601;stroke:#272728;stroke-width:0.0653523"
       d="m 22.885961,10.255705 6.441798,0.169522 V 8.8430296 l -6.385291,-0.05651 z"
       id="path6255-7" />
    <path
       style="fill:#adb2b1;fill-opacity:0.82478601;stroke:#272728;stroke-width:0.0653523"
       d="m 37.916202,2.4862863 6.611321,0.113014 -0.113015,10.9058527 h -6.272277 z"
       id="path6089" />
    <path
       style="fill:#8e9290;fill-opacity:0.82478601;stroke:#272728;stroke-width:0.0653523"
       d="m 23.054859,3.1643704 6.328784,0.056507 v 1.5821963 h -6.441798 z"
       id="path6091" />
    <path
       style="fill:#161819;fill-opacity:0.82478601;stroke:#272728;stroke-width:0.0653523"
       d="m 31.080019,2.4581695 6.328784,0.056507 v 1.5821963 h -6.441798 z"
       id="path6091-8" />
    <path
       style="fill:#919192;fill-opacity:0.82478601;stroke:#272728;stroke-width:0.0653523"
       d="m 22.941845,12.60104 6.441798,0.169522 v -1.582197 l -6.385291,-0.05651 z"
       id="path6255" />
    <path
       style="fill:#101313;fill-opacity:0.824786;stroke:#272728;stroke-width:0.0653523"
       d="M 8.1370091,6.3852698 C 4.8596025,6.3287629 4.8596025,6.3287629 4.8596025,6.3287629 v 1.017126 L 8.193516,7.1763677 Z"
       id="path6257" />
    <path
       style="fill:#101313;fill-opacity:0.824786;stroke:#272728;stroke-width:0.0653523"
       d="m 8.0511019,8.3059405 c -3.2774066,-0.05651 -3.2774066,-0.05651 -3.2774066,-0.05651 v 1.017126 l 3.3339135,-0.169518 z"
       id="path6257-8" />
    <path
       style="fill:#a0a19f;fill-opacity:0.82478601;stroke:#272728;stroke-width:0.0653523"
       d="m 30.174742,5.4811577 0.05651,0.7910982 0.791098,0.056507 -0.113014,-0.7910982 z"
       id="path6532" />
  </g>
</svg>
