<?xml version="1.0" encoding="UTF-8" standalone="no"?>
<!-- Created with Inkscape (http://www.inkscape.org/) -->

<svg
   width="500"
   height="500"
   viewBox="0 0 132.29166 132.29167"
   version="1.1"
   id="svg8"
   inkscape:version="1.2 (dc2aedaf03, 2022-05-15)"
   sodipodi:docname="circule.svg"
   xmlns:inkscape="http://www.inkscape.org/namespaces/inkscape"
   xmlns:sodipodi="http://sodipodi.sourceforge.net/DTD/sodipodi-0.dtd"
   xmlns="http://www.w3.org/2000/svg"
   xmlns:svg="http://www.w3.org/2000/svg"
   xmlns:rdf="http://www.w3.org/1999/02/22-rdf-syntax-ns#"
   xmlns:cc="http://creativecommons.org/ns#"
   xmlns:dc="http://purl.org/dc/elements/1.1/">
  <defs
     id="defs2" />
  <sodipodi:namedview
     id="base"
     pagecolor="#ffffff"
     bordercolor="#666666"
     borderopacity="1.0"
     inkscape:pageopacity="0.0"
     inkscape:pageshadow="2"
     inkscape:zoom="1.4218014"
     inkscape:cx="244.40826"
     inkscape:cy="269.37658"
     inkscape:document-units="px"
     inkscape:current-layer="layer1"
     showgrid="true"
     units="px"
     inkscape:pagecheckerboard="true"
     inkscape:window-width="1600"
     inkscape:window-height="837"
     inkscape:window-x="-8"
     inkscape:window-y="32"
     inkscape:window-maximized="1"
     inkscape:showpageshadow="2"
     inkscape:deskcolor="#d1d1d1">
    <inkscape:grid
       type="xygrid"
       id="grid2802" />
  </sodipodi:namedview>
  <metadata
     id="metadata5">
    <rdf:RDF>
      <cc:Work
         rdf:about="">
        <dc:format>image/svg+xml</dc:format>
        <dc:type
           rdf:resource="http://purl.org/dc/dcmitype/StillImage" />
        <dc:title />
      </cc:Work>
    </rdf:RDF>
  </metadata>
  <g
     inkscape:label="Layer 1"
     inkscape:groupmode="layer"
     id="layer1"
     transform="translate(0,-164.70831)">
    <path
       style="opacity:0.524;fill:#ffffff;fill-opacity:0;stroke:#ffffff;stroke-width:0.509034;stroke-linecap:round;stroke-linejoin:bevel;stroke-miterlimit:4;stroke-dasharray:none;stroke-opacity:1"
       id="path1366"
       sodipodi:type="arc"
       sodipodi:cx="72.85582"
       sodipodi:cy="238.77972"
       sodipodi:rx="44.72451"
       sodipodi:ry="44.7243"
       sodipodi:start="0"
       sodipodi:end="6.2320472"
       sodipodi:open="true"
       d="M 117.58033,238.77972 A 44.72451,44.7243 0 0 1 73.427586,283.50037 44.72451,44.7243 0 0 1 28.145929,239.92316 44.72451,44.7243 0 0 1 71.140895,194.08831 44.72451,44.7243 0 0 1 117.52186,236.4936"
       sodipodi:arc-type="arc" />
    <path
       style="opacity:0.524;fill:#fdfaff;fill-opacity:0;stroke:#ffffff;stroke-width:0.573073;stroke-linecap:round;stroke-linejoin:bevel;stroke-miterlimit:4;stroke-dasharray:none;stroke-opacity:1"
       id="path1366-3"
       sodipodi:type="arc"
       sodipodi:cx="72.554291"
       sodipodi:cy="237.08458"
       sodipodi:rx="56.598705"
       sodipodi:ry="56.598442"
       sodipodi:start="0"
       sodipodi:end="6.2320472"
       sodipodi:open="true"
       d="M 129.153,237.08458 A 56.598705,56.598442 0 0 1 73.277859,293.6784 56.598705,56.598442 0 0 1 15.974086,238.53159 56.598705,56.598442 0 0 1 70.38406,180.52776 56.598705,56.598442 0 0 1 129.07901,234.1915"
       sodipodi:arc-type="arc" />
    <path
       style="opacity:0.524;fill:#ffffff;fill-opacity:0;stroke:#ffffff;stroke-width:0.389264;stroke-linecap:round;stroke-linejoin:bevel;stroke-miterlimit:4;stroke-dasharray:none;stroke-opacity:1"
       id="path1366-8"
       sodipodi:type="arc"
       sodipodi:cx="74.294601"
       sodipodi:cy="238.77022"
       sodipodi:rx="34.201096"
       sodipodi:ry="34.200943"
       sodipodi:start="0"
       sodipodi:end="6.2320472"
       sodipodi:open="true"
       d="M 108.4957,238.77022 A 34.201096,34.200943 0 0 1 74.731834,272.96837 34.201096,34.200943 0 0 1 40.104685,239.64461 34.201096,34.200943 0 0 1 72.983189,204.59443 34.201096,34.200943 0 0 1 108.45099,237.02201"
       sodipodi:arc-type="arc" />
    <path
       style="opacity:0.524;fill:#ffffff;fill-opacity:0;stroke:#ffffff;stroke-width:0.515144;stroke-linecap:round;stroke-linejoin:bevel;stroke-miterlimit:4;stroke-dasharray:none;stroke-opacity:1"
       id="path1366-8-8"
       sodipodi:type="arc"
       sodipodi:cx="74.157013"
       sodipodi:cy="238.02794"
       sodipodi:rx="18.037054"
       sodipodi:ry="16.726391"
       sodipodi:start="0"
       sodipodi:end="6.2320472"
       sodipodi:open="true"
       d="M 92.194067,238.02794 A 18.037054,16.726391 0 0 1 74.387602,254.75296 18.037054,16.726391 0 0 1 56.125855,238.45557 18.037054,16.726391 0 0 1 73.465397,221.31385 18.037054,16.726391 0 0 1 92.170488,237.17296"
       sodipodi:arc-type="arc" />
    <path
       style="fill:#cfd1d1;fill-opacity:0.816239;stroke:#c3c3c2;stroke-width:0.85910207;stroke-opacity:0.91453;stroke-dasharray:none"
       d="m 74.436085,238.95831 c 31.263155,-45.96429 31.449245,-46.52256 31.449245,-46.52256 v 0 0"
       id="path9042"
       inkscape:label="path9042" />
    <path
       style="fill:#ffffff;fill-opacity:0.594017;stroke:#dcdede;stroke-width:0.515144;stroke-opacity:0.91453"
       d="m 76.296989,236.16695 28.657891,-41.8703 c -16.254795,-9.92263 -44.615802,-17.38459 -68.853378,5.02444 z"
       id="path10166"
       sodipodi:nodetypes="cccc" />
  </g>
</svg>
